<svg width="19" height="14" viewBox="0 0 19 14" fill="none" xmlns="http://www.w3.org/2000/svg">
<path d="M17.6657 5.16696V10.167M4.33235 7.2503V10.167C4.33235 10.83 4.85914 11.4659 5.79682 11.9347C6.7345 12.4036 8.00627 12.667 9.33235 12.667C10.6584 12.667 11.9302 12.4036 12.8679 11.9347C13.8056 11.4659 14.3324 10.83 14.3324 10.167V7.2503M17.1824 5.9353C17.3315 5.86949 17.4581 5.76136 17.5465 5.6243C17.6348 5.48725 17.681 5.32729 17.6793 5.16425C17.6776 5.0012 17.6281 4.84223 17.537 4.70703C17.4458 4.57183 17.317 4.46634 17.1665 4.40363L10.024 1.1503C9.80688 1.05125 9.57101 1 9.33235 1C9.09369 1 8.85782 1.05125 8.64068 1.1503L1.49902 4.4003C1.35066 4.46527 1.22445 4.57208 1.13582 4.70764C1.0472 4.84321 1 5.00167 1 5.16363C1 5.3256 1.0472 5.48405 1.13582 5.61962C1.22445 5.75518 1.35066 5.86199 1.49902 5.92696L8.64068 9.18363C8.85782 9.28267 9.09369 9.33393 9.33235 9.33393C9.57101 9.33393 9.80688 9.28267 10.024 9.18363L17.1824 5.9353Z" stroke="#F34767" stroke-width="2" stroke-linecap="round" stroke-linejoin="round"/>
</svg>
