<svg width="20" height="20" viewBox="0 0 20 20" fill="none" xmlns="http://www.w3.org/2000/svg">
<g clip-path="url(#clip0_20_152)">
<path d="M11.1667 1.66666H4.99999C4.55796 1.66666 4.13404 1.84225 3.82148 2.15481C3.50892 2.46737 3.33332 2.8913 3.33332 3.33333V16.6667C3.33332 17.1087 3.50892 17.5326 3.82148 17.8452C4.13404 18.1577 4.55796 18.3333 4.99999 18.3333H15C15.442 18.3333 15.8659 18.1577 16.1785 17.8452C16.4911 17.5326 16.6667 17.1087 16.6667 16.6667V10.5M1.66666 4.99999H4.99999M1.66666 8.33332H4.99999M1.66666 11.6667H4.99999M1.66666 15H4.99999M17.815 4.68832C18.147 4.35636 18.3334 3.90612 18.3334 3.43666C18.3334 2.96719 18.147 2.51695 17.815 2.18499C17.483 1.85303 17.0328 1.66653 16.5633 1.66653C16.0939 1.66653 15.6436 1.85303 15.3117 2.18499L11.1367 6.36166C10.9385 6.55968 10.7935 6.80444 10.715 7.07332L10.0175 9.46499C9.99658 9.5367 9.99532 9.61271 10.0139 9.68507C10.0324 9.75742 10.07 9.82347 10.1229 9.87629C10.1757 9.9291 10.2417 9.96675 10.3141 9.98529C10.3864 10.0038 10.4624 10.0026 10.5342 9.98166L12.9258 9.28416C13.1947 9.20564 13.4395 9.06062 13.6375 8.86249L17.815 4.68832Z" stroke="#F34767" stroke-width="2" stroke-linecap="round" stroke-linejoin="round"/>
</g>
<defs>
<clipPath id="clip0_20_152">
<rect width="20" height="20" fill="white"/>
</clipPath>
</defs>
</svg>
