<svg width="20" height="20" viewBox="0 0 20 20" fill="none" xmlns="http://www.w3.org/2000/svg">
<g clip-path="url(#clip0_20_146)">
<path d="M15 16.6666C15 15.3405 14.4732 14.0688 13.5355 13.1311C12.5978 12.1934 11.3261 11.6666 9.99999 11.6666M9.99999 11.6666C8.67391 11.6666 7.40214 12.1934 6.46446 13.1311C5.52677 14.0688 4.99999 15.3405 4.99999 16.6666M9.99999 11.6666C11.8409 11.6666 13.3333 10.1742 13.3333 8.33329C13.3333 6.49234 11.8409 4.99996 9.99999 4.99996C8.15904 4.99996 6.66666 6.49234 6.66666 8.33329C6.66666 10.1742 8.15904 11.6666 9.99999 11.6666ZM18.3333 9.99996C18.3333 14.6023 14.6024 18.3333 9.99999 18.3333C5.39762 18.3333 1.66666 14.6023 1.66666 9.99996C1.66666 5.39759 5.39762 1.66663 9.99999 1.66663C14.6024 1.66663 18.3333 5.39759 18.3333 9.99996Z" stroke="#F34767" stroke-width="2" stroke-linecap="round" stroke-linejoin="round"/>
</g>
<defs>
<clipPath id="clip0_20_146">
<rect width="20" height="20" fill="white"/>
</clipPath>
</defs>
</svg>
