<svg preserveAspectRatio="none" overflow="visible" style="display: block;" width="20" height="20" viewBox="0 0 20 20" fill="none" xmlns="http://www.w3.org/2000/svg">
<g id="Frame" clip-path="url(#clip0_0_129)">
<g id="Vector">
</g>
<path id="Vector_2" d="M12.5 6.66667H12.5083" stroke="black" stroke-width="2" stroke-linecap="round" stroke-linejoin="round"/>
<path id="Vector_3" d="M2.5 5C2.5 4.33696 2.76339 3.70107 3.23223 3.23223C3.70107 2.76339 4.33696 2.5 5 2.5H15C15.663 2.5 16.2989 2.76339 16.7678 3.23223C17.2366 3.70107 17.5 4.33696 17.5 5V15C17.5 15.663 17.2366 16.2989 16.7678 16.7678C16.2989 17.2366 15.663 17.5 15 17.5H5C4.33696 17.5 3.70107 17.2366 3.23223 16.7678C2.76339 16.2989 2.5 15.663 2.5 15V5Z" stroke="black" stroke-width="2" stroke-linecap="round" stroke-linejoin="round"/>
<path id="Vector_4" d="M2.5 13.3333L6.66667 9.16667C7.44 8.4225 8.39333 8.4225 9.16667 9.16667L13.3333 13.3333" stroke="black" stroke-width="2" stroke-linecap="round" stroke-linejoin="round"/>
<path id="Vector_5" d="M11.6667 11.6667L12.5 10.8333C13.2733 10.0892 14.2267 10.0892 15 10.8333L17.5 13.3333" stroke="black" stroke-width="2" stroke-linecap="round" stroke-linejoin="round"/>
</g>
<defs>
<clipPath id="clip0_0_129">
<rect width="20" height="20" fill="white"/>
</clipPath>
</defs>
</svg>
