<svg width="40" height="44" viewBox="0 0 40 44" fill="none" xmlns="http://www.w3.org/2000/svg">
<path d="M19.2874 17.445C18.3742 16.5326 16.84 16.5326 15.9267 17.445L15.5614 17.81L0.694055 32.6638C0.255704 33.1383 0 33.7222 0 34.3791V38.3937V41.2039C0 43.1381 2.30134 44.087 3.68945 42.7367L22.6116 23.8318C23.4518 22.9924 23.4518 21.6421 22.6116 20.7662L19.2874 17.445Z" fill="white"/>
<path d="M1.28142 13.3939C1.02572 13.1385 0.623897 13.1385 0.368193 13.3939C0.258605 13.5034 0.185547 13.6859 0.185547 13.8684V18.3939V24.4887C0.185547 25.0726 0.879602 25.3646 1.28142 24.9631L5.95716 20.3282C6.57816 19.7077 6.57816 18.7223 5.95716 18.1019L1.28142 13.3939Z" fill="white"/>
<path d="M39.4159 14.3794C39.1602 13.394 38.8679 12.4086 38.4661 11.4597C37.5164 9.23346 36.1648 7.22618 34.4479 5.51088C32.731 3.75908 30.7219 2.40873 28.4936 1.45984C26.7768 0.729918 24.9868 0.291967 23.1239 0.0729918C22.4663 0.0364959 21.8453 0 21.1878 0C18.7769 0 16.439 0.437951 14.2107 1.35035C14.1011 1.38684 13.9915 1.42334 13.882 1.45984C13.0418 1.82479 12.2381 2.22625 11.471 2.7007C10.1925 3.46711 8.98705 4.416 7.9277 5.47438L7.89117 5.51088C6.1743 7.22618 6.1743 9.99987 7.89117 11.7152L7.9277 11.7517C9.64457 13.467 12.4573 13.54 14.1742 11.7882C14.3934 11.5692 14.6125 11.3867 14.8317 11.1677C15.7815 10.3648 16.9139 9.7444 18.1193 9.34295C19.0691 9.05098 20.0919 8.8685 21.1513 8.8685C21.9914 8.8685 22.7586 8.97799 23.5257 9.16047C27.7996 10.2188 30.9776 14.0874 30.9776 18.6859C30.9776 19.7443 30.795 20.7662 30.5028 21.715C30.1375 22.8464 29.553 23.9048 28.8224 24.8172C28.7128 24.9267 28.6398 25.0362 28.5302 25.1457L28.2014 25.4741L27.5074 26.277L24.9868 28.7952L17.8636 35.9119C16.1102 37.6637 16.1102 40.4739 17.8636 42.2257C19.617 43.9775 22.4298 43.9775 24.1832 42.2257L31.3064 35.109L32.8041 33.6127L33.4616 32.9558C33.5347 32.8828 33.6077 32.8463 33.6443 32.7733C33.9365 32.5178 34.1922 32.2624 34.4844 32.0069C34.7767 31.7149 35.0689 31.3865 35.3611 31.0945C36.0917 30.2916 36.7127 29.4157 37.2972 28.4668C37.7721 27.7004 38.1739 26.8975 38.5392 26.0581C39.5255 23.7588 40.0004 21.2771 40.0004 18.7589C39.9273 17.2626 39.7446 15.8027 39.4159 14.3794Z" fill="white"/>
</svg>
