<svg width="205" height="51" viewBox="0 0 205 51" fill="none" xmlns="http://www.w3.org/2000/svg">
<g clip-path="url(#clip0_20_9)">
<path d="M85.9484 12.1082C83.9357 11.2097 81.5375 10.7819 78.7111 10.7819H73.4865H71.3453H67.4911C66.4205 10.7819 65.5212 11.6376 65.5212 12.75V42.6141C65.5212 43.6837 66.3777 44.5822 67.4911 44.5822H71.5166C72.5872 44.5822 73.4865 43.7265 73.4865 42.6141V35.4262C73.4865 34.3566 74.343 33.4581 75.4564 33.4581H78.7967C82.9079 33.4581 86.1625 32.474 88.6035 30.4631C91.0017 28.495 92.2436 25.6712 92.2436 22.0344C92.2436 19.6812 91.6869 17.6703 90.6163 15.9589C89.5028 14.2903 87.9183 12.9639 85.9484 12.1082ZM82.6081 25.7995C81.666 26.7408 80.2528 27.1686 78.3257 27.1686H75.4136C74.343 27.1686 73.4437 26.3129 73.4437 25.2005V18.9967C73.4437 17.927 74.3002 17.0285 75.4136 17.0285H78.5398C80.3384 17.0285 81.666 17.4992 82.6081 18.3977C83.5502 19.2962 83.9785 20.5369 83.9785 22.0772C84.0213 23.6175 83.5502 24.8582 82.6081 25.7995Z" fill="#1C1A1B"/>
<path d="M109.459 38.3784C108.645 38.9346 107.575 39.2341 106.333 39.2341C104.491 39.2341 103.078 38.5495 102.093 37.1376C101.622 36.4958 101.28 35.6829 101.023 34.7844C100.723 33.7148 101.579 32.6879 102.65 32.6879H117.339C118.281 32.6879 119.009 31.9178 119.009 31.0193C119.009 28.1099 118.495 25.5856 117.424 23.4891C116.354 21.3926 114.855 19.7668 112.885 18.6544C110.915 17.542 108.645 16.9857 105.99 16.9857C103.335 16.9857 101.023 17.542 99.0527 18.6544C97.0827 19.7668 95.5411 21.3498 94.4704 23.4891C93.3998 25.5856 92.8431 28.1527 92.8431 31.1904C92.8431 34.0998 93.3998 36.6242 94.4704 38.7206C95.5411 40.8599 97.0827 42.4857 99.0955 43.5982C101.108 44.7534 103.506 45.3096 106.29 45.3096C109.587 45.3096 112.371 44.4967 114.684 42.828C116.396 41.63 117.638 40.047 118.452 38.0361C118.923 36.9237 118.067 35.7257 116.868 35.7257H112.371C111.729 35.7257 111.172 36.068 110.872 36.6242C110.572 37.3943 110.059 37.9933 109.459 38.3784ZM106.033 23.0185C107.746 23.0185 109.074 23.703 110.016 25.1149C110.187 25.3717 110.358 25.6712 110.487 25.9706C111.001 27.0831 110.144 28.3238 108.945 28.3238H103.078C101.879 28.3238 101.023 27.0831 101.536 25.9706C101.665 25.6712 101.836 25.3717 102.008 25.1149C102.95 23.703 104.277 23.0185 106.033 23.0185Z" fill="#1C1A1B"/>
<path d="M137.38 38.3784C136.567 38.9346 135.496 39.2341 134.254 39.2341C132.413 39.2341 131 38.5495 130.015 37.1376C129.544 36.4958 129.201 35.6829 128.944 34.7844C128.644 33.7148 129.501 32.6879 130.571 32.6879H145.26C146.202 32.6879 146.93 31.9178 146.93 31.0193C146.93 28.1099 146.416 25.5856 145.346 23.4891C144.275 21.3926 142.776 19.7668 140.806 18.6544C138.836 17.542 136.567 16.9857 133.912 16.9857C131.257 16.9857 128.944 17.542 126.974 18.6544C125.004 19.7668 123.462 21.3498 122.392 23.4891C121.321 25.5856 120.765 28.1527 120.765 31.1904C120.765 34.0998 121.321 36.6242 122.392 38.7206C123.462 40.8599 125.004 42.4857 127.017 43.5982C129.03 44.7534 131.428 45.3096 134.211 45.3096C137.509 45.3096 140.292 44.4967 142.605 42.828C144.318 41.63 145.56 40.047 146.374 38.0361C146.845 36.9237 145.988 35.7257 144.789 35.7257H140.292C139.65 35.7257 139.093 36.068 138.794 36.6242C138.494 37.3943 137.98 37.9933 137.38 38.3784ZM133.954 23.0185C135.667 23.0185 136.995 23.703 137.937 25.1149C138.108 25.3717 138.28 25.6712 138.408 25.9706C138.922 27.0831 138.066 28.3238 136.867 28.3238H131C129.8 28.3238 128.944 27.0831 129.458 25.9706C129.586 25.6712 129.758 25.3717 129.929 25.1149C130.871 23.703 132.199 23.0185 133.954 23.0185Z" fill="#1C1A1B"/>
<path d="M164.488 16.943C162.947 16.943 161.533 17.4136 160.206 18.3121C159.82 18.5688 159.435 18.9111 159.092 19.2962C158.536 19.8951 157.508 19.5101 157.508 18.6972C157.508 18.1837 157.122 17.7987 156.609 17.7987H150.827C150.313 17.7987 149.928 18.1837 149.928 18.6972V43.5982C149.928 44.1116 150.313 44.4967 150.827 44.4967H156.609C157.122 44.4967 157.508 44.1116 157.508 43.5982V30.7198C157.508 29.6502 157.636 28.7089 157.893 27.896C158.15 27.0831 158.536 26.3557 159.092 25.7567C159.606 25.1577 160.291 24.6871 161.148 24.3876C162.004 24.0881 162.989 23.917 164.103 23.917C164.745 23.917 165.259 23.9597 165.73 24.0025C166.458 24.0881 167.1 23.5319 167.1 22.8045V18.6544C167.1 17.9698 166.629 17.3708 165.987 17.1997C165.516 17.0285 165.045 16.943 164.488 16.943Z" fill="#1C1A1B"/>
<path d="M171.254 44.4966H175.023C176.094 44.4966 176.95 43.6409 176.95 42.5713V19.724C176.95 18.6544 176.094 17.7987 175.023 17.7987H171.254C170.184 17.7987 169.327 18.6544 169.327 19.724V42.5713C169.327 43.6409 170.184 44.4966 171.254 44.4966Z" fill="#1C1A1B"/>
<path d="M171.297 15.1032H174.98C176.051 15.1032 176.95 14.2047 176.95 13.1351V10.6963C176.95 9.62669 176.051 8.7282 174.98 8.7282H171.297C170.227 8.7282 169.327 9.62669 169.327 10.6963V13.1351C169.327 14.2475 170.227 15.1032 171.297 15.1032Z" fill="#1C1A1B"/>
<path d="M198.362 35.7257C197.72 35.7257 197.163 36.068 196.863 36.6242C196.478 37.3943 196.007 37.9933 195.407 38.3784C194.594 38.9346 193.523 39.2341 192.281 39.2341C190.44 39.2341 189.027 38.5495 188.042 37.1376C187.571 36.4958 187.228 35.6829 186.971 34.7844C186.671 33.7148 187.528 32.6879 188.598 32.6879H203.287C204.229 32.6879 204.957 31.9178 204.957 31.0193C204.957 28.1099 204.443 25.5856 203.373 23.4891C202.302 21.3926 200.803 19.7668 198.833 18.6544C196.863 17.542 194.594 16.9857 191.939 16.9857C189.283 16.9857 186.971 17.542 185.001 18.6544C183.031 19.7668 181.489 21.3498 180.419 23.4891C179.348 25.5856 178.792 28.1527 178.792 31.1904C178.792 34.0998 179.348 36.6242 180.419 38.7206C181.489 40.8599 183.031 42.4857 185.044 43.5982C187.057 44.7534 189.455 45.3096 192.238 45.3096C195.536 45.3096 198.319 44.4967 200.632 42.828C202.345 41.63 203.587 40.047 204.4 38.0361C204.872 36.9237 204.015 35.7257 202.816 35.7257H198.362ZM191.981 23.0185C193.694 23.0185 195.022 23.703 195.964 25.1149C196.135 25.3717 196.307 25.6712 196.435 25.9706C196.949 27.0831 196.093 28.3238 194.893 28.3238H189.027C187.827 28.3238 186.971 27.0831 187.485 25.9706C187.613 25.6712 187.785 25.3717 187.956 25.1149C188.855 23.703 190.226 23.0185 191.981 23.0185Z" fill="#1C1A1B"/>
<path d="M22.6112 20.4513C21.5406 19.3817 19.742 19.3817 18.6714 20.4513L18.2432 20.8792L0.813662 38.2928C0.29977 38.849 0 39.5336 0 40.3037V45.0101V48.3045C0 50.5722 2.69793 51.6846 4.32526 50.1015L26.5083 27.9388C27.4932 26.9547 27.4932 25.3717 26.5083 24.3448L22.6112 20.4513Z" fill="#F34767"/>
<path d="M1.49885 15.7022C1.19908 15.4027 0.728011 15.4027 0.428241 15.7022C0.299768 15.8305 0.214119 16.0445 0.214119 16.2584V21.5638V28.7089C0.214119 29.3935 1.02778 29.7357 1.49885 29.2651L6.98036 23.8314C7.70837 23.104 7.70837 21.9488 6.98036 21.2215L1.49885 15.7022Z" fill="#F34767"/>
<path d="M46.2074 16.8574C45.9077 15.7022 45.5651 14.547 45.094 13.4346C43.9806 10.8247 42.3961 8.47148 40.3833 6.46057C38.3706 4.40688 36.0152 2.82383 33.403 1.71141C31.3902 0.855705 29.2918 0.342282 27.1078 0.0855705C26.337 0.0427852 25.6089 0 24.8381 0C22.0117 0 19.2709 0.513423 16.6587 1.58305C16.5302 1.62584 16.4017 1.66862 16.2732 1.71141C15.2883 2.13926 14.3461 2.6099 13.4468 3.16611C11.948 4.0646 10.5348 5.17701 9.29288 6.41778L9.25005 6.46057C7.23731 8.47148 7.23731 11.7232 9.25005 13.7341L9.29288 13.7768C11.3056 15.7878 14.6031 15.8733 16.6158 13.8196C16.8728 13.5629 17.1297 13.349 17.3867 13.0923C18.5001 12.151 19.8277 11.4237 21.2409 10.953C22.3543 10.6107 23.5534 10.3968 24.7953 10.3968C25.7802 10.3968 26.6795 10.5252 27.5789 10.7391C32.5893 11.9799 36.315 16.5151 36.315 21.906C36.315 23.1468 36.1009 24.3448 35.7583 25.4572C35.3301 26.7836 34.6449 28.0243 33.7884 29.094C33.6599 29.2223 33.5743 29.3507 33.4458 29.479L33.0604 29.8641L32.2467 30.8054L29.2918 33.7575L20.9411 42.1007C18.8855 44.1544 18.8855 47.4488 20.9411 49.5025C22.9967 51.5562 26.2941 51.5562 28.3497 49.5025L36.7004 41.1594L38.4562 39.4052L39.2271 38.6351C39.3127 38.5495 39.3984 38.5067 39.4412 38.4211C39.7838 38.1216 40.0836 37.8221 40.4262 37.5226C40.7687 37.1804 41.1113 36.7953 41.4539 36.453C42.3104 35.5117 43.0384 34.4849 43.7236 33.3725C44.2803 32.474 44.7514 31.5327 45.1797 30.5487C46.3359 27.8532 46.8926 24.9438 46.8926 21.9916C46.807 20.2374 46.5929 18.526 46.2074 16.8574Z" fill="#F34767"/>
</g>
<defs>
<clipPath id="clip0_20_9">
<rect width="205" height="51" fill="white"/>
</clipPath>
</defs>
</svg>
